<svg viewBox="0 0 1200 280" xmlns="http://www.w3.org/2000/svg" font-family="'JetBrains Mono','Courier New',monospace">
  <defs>
    <linearGradient id="bg" x1="0" y1="0" x2="1" y2="1">
      <stop offset="0%" stop-color="#F8F1E4"/>
      <stop offset="100%" stop-color="#EFE2C9"/>
    </linearGradient>
  </defs>

  <rect width="1200" height="280" fill="url(#bg)"/>

  <g opacity="0.35">
    <rect x="20" y="20" width="2" height="2" fill="#C9B98F"/><rect x="20" y="60" width="2" height="2" fill="#C9B98F"/><rect x="20" y="100" width="2" height="2" fill="#C9B98F"/><rect x="20" y="140" width="2" height="2" fill="#C9B98F"/><rect x="20" y="180" width="2" height="2" fill="#C9B98F"/><rect x="20" y="220" width="2" height="2" fill="#C9B98F"/><rect x="60" y="20" width="2" height="2" fill="#C9B98F"/><rect x="60" y="60" width="2" height="2" fill="#C9B98F"/><rect x="60" y="100" width="2" height="2" fill="#C9B98F"/><rect x="60" y="140" width="2" height="2" fill="#C9B98F"/><rect x="60" y="180" width="2" height="2" fill="#C9B98F"/><rect x="60" y="220" width="2" height="2" fill="#C9B98F"/><rect x="100" y="20" width="2" height="2" fill="#C9B98F"/><rect x="100" y="60" width="2" height="2" fill="#C9B98F"/><rect x="100" y="100" width="2" height="2" fill="#C9B98F"/><rect x="100" y="140" width="2" height="2" fill="#C9B98F"/><rect x="100" y="180" width="2" height="2" fill="#C9B98F"/><rect x="100" y="220" width="2" height="2" fill="#C9B98F"/><rect x="140" y="20" width="2" height="2" fill="#C9B98F"/><rect x="140" y="60" width="2" height="2" fill="#C9B98F"/><rect x="140" y="100" width="2" height="2" fill="#C9B98F"/><rect x="140" y="140" width="2" height="2" fill="#C9B98F"/><rect x="140" y="180" width="2" height="2" fill="#C9B98F"/><rect x="140" y="220" width="2" height="2" fill="#C9B98F"/><rect x="180" y="20" width="2" height="2" fill="#C9B98F"/><rect x="180" y="60" width="2" height="2" fill="#C9B98F"/><rect x="180" y="100" width="2" height="2" fill="#C9B98F"/><rect x="180" y="140" width="2" height="2" fill="#C9B98F"/><rect x="180" y="180" width="2" height="2" fill="#C9B98F"/><rect x="180" y="220" width="2" height="2" fill="#C9B98F"/><rect x="220" y="20" width="2" height="2" fill="#C9B98F"/><rect x="220" y="60" width="2" height="2" fill="#C9B98F"/><rect x="220" y="100" width="2" height="2" fill="#C9B98F"/><rect x="220" y="140" width="2" height="2" fill="#C9B98F"/><rect x="220" y="180" width="2" height="2" fill="#C9B98F"/><rect x="220" y="220" width="2" height="2" fill="#C9B98F"/><rect x="260" y="20" width="2" height="2" fill="#C9B98F"/><rect x="260" y="60" width="2" height="2" fill="#C9B98F"/><rect x="260" y="100" width="2" height="2" fill="#C9B98F"/><rect x="260" y="140" width="2" height="2" fill="#C9B98F"/><rect x="260" y="180" width="2" height="2" fill="#C9B98F"/><rect x="260" y="220" width="2" height="2" fill="#C9B98F"/><rect x="300" y="20" width="2" height="2" fill="#C9B98F"/><rect x="300" y="60" width="2" height="2" fill="#C9B98F"/><rect x="300" y="100" width="2" height="2" fill="#C9B98F"/><rect x="300" y="140" width="2" height="2" fill="#C9B98F"/><rect x="300" y="180" width="2" height="2" fill="#C9B98F"/><rect x="300" y="220" width="2" height="2" fill="#C9B98F"/><rect x="340" y="20" width="2" height="2" fill="#C9B98F"/><rect x="340" y="60" width="2" height="2" fill="#C9B98F"/><rect x="340" y="100" width="2" height="2" fill="#C9B98F"/><rect x="340" y="140" width="2" height="2" fill="#C9B98F"/><rect x="340" y="180" width="2" height="2" fill="#C9B98F"/><rect x="340" y="220" width="2" height="2" fill="#C9B98F"/><rect x="380" y="20" width="2" height="2" fill="#C9B98F"/><rect x="380" y="60" width="2" height="2" fill="#C9B98F"/><rect x="380" y="100" width="2" height="2" fill="#C9B98F"/><rect x="380" y="140" width="2" height="2" fill="#C9B98F"/><rect x="380" y="180" width="2" height="2" fill="#C9B98F"/><rect x="380" y="220" width="2" height="2" fill="#C9B98F"/><rect x="420" y="20" width="2" height="2" fill="#C9B98F"/><rect x="420" y="60" width="2" height="2" fill="#C9B98F"/><rect x="420" y="100" width="2" height="2" fill="#C9B98F"/><rect x="420" y="140" width="2" height="2" fill="#C9B98F"/><rect x="420" y="180" width="2" height="2" fill="#C9B98F"/><rect x="420" y="220" width="2" height="2" fill="#C9B98F"/><rect x="460" y="20" width="2" height="2" fill="#C9B98F"/><rect x="460" y="60" width="2" height="2" fill="#C9B98F"/><rect x="460" y="100" width="2" height="2" fill="#C9B98F"/><rect x="460" y="140" width="2" height="2" fill="#C9B98F"/><rect x="460" y="180" width="2" height="2" fill="#C9B98F"/><rect x="460" y="220" width="2" height="2" fill="#C9B98F"/><rect x="500" y="20" width="2" height="2" fill="#C9B98F"/><rect x="500" y="60" width="2" height="2" fill="#C9B98F"/><rect x="500" y="100" width="2" height="2" fill="#C9B98F"/><rect x="500" y="140" width="2" height="2" fill="#C9B98F"/><rect x="500" y="180" width="2" height="2" fill="#C9B98F"/><rect x="500" y="220" width="2" height="2" fill="#C9B98F"/><rect x="540" y="20" width="2" height="2" fill="#C9B98F"/><rect x="540" y="60" width="2" height="2" fill="#C9B98F"/><rect x="540" y="100" width="2" height="2" fill="#C9B98F"/><rect x="540" y="140" width="2" height="2" fill="#C9B98F"/><rect x="540" y="180" width="2" height="2" fill="#C9B98F"/><rect x="540" y="220" width="2" height="2" fill="#C9B98F"/><rect x="580" y="20" width="2" height="2" fill="#C9B98F"/><rect x="580" y="60" width="2" height="2" fill="#C9B98F"/><rect x="580" y="100" width="2" height="2" fill="#C9B98F"/><rect x="580" y="140" width="2" height="2" fill="#C9B98F"/><rect x="580" y="180" width="2" height="2" fill="#C9B98F"/><rect x="580" y="220" width="2" height="2" fill="#C9B98F"/><rect x="620" y="20" width="2" height="2" fill="#C9B98F"/><rect x="620" y="60" width="2" height="2" fill="#C9B98F"/><rect x="620" y="100" width="2" height="2" fill="#C9B98F"/><rect x="620" y="140" width="2" height="2" fill="#C9B98F"/><rect x="620" y="180" width="2" height="2" fill="#C9B98F"/><rect x="620" y="220" width="2" height="2" fill="#C9B98F"/><rect x="660" y="20" width="2" height="2" fill="#C9B98F"/><rect x="660" y="60" width="2" height="2" fill="#C9B98F"/><rect x="660" y="100" width="2" height="2" fill="#C9B98F"/><rect x="660" y="140" width="2" height="2" fill="#C9B98F"/><rect x="660" y="180" width="2" height="2" fill="#C9B98F"/><rect x="660" y="220" width="2" height="2" fill="#C9B98F"/><rect x="700" y="20" width="2" height="2" fill="#C9B98F"/><rect x="700" y="60" width="2" height="2" fill="#C9B98F"/><rect x="700" y="100" width="2" height="2" fill="#C9B98F"/><rect x="700" y="140" width="2" height="2" fill="#C9B98F"/><rect x="700" y="180" width="2" height="2" fill="#C9B98F"/><rect x="700" y="220" width="2" height="2" fill="#C9B98F"/><rect x="740" y="20" width="2" height="2" fill="#C9B98F"/><rect x="740" y="60" width="2" height="2" fill="#C9B98F"/><rect x="740" y="100" width="2" height="2" fill="#C9B98F"/><rect x="740" y="140" width="2" height="2" fill="#C9B98F"/><rect x="740" y="180" width="2" height="2" fill="#C9B98F"/><rect x="740" y="220" width="2" height="2" fill="#C9B98F"/><rect x="780" y="20" width="2" height="2" fill="#C9B98F"/><rect x="780" y="60" width="2" height="2" fill="#C9B98F"/><rect x="780" y="100" width="2" height="2" fill="#C9B98F"/><rect x="780" y="140" width="2" height="2" fill="#C9B98F"/><rect x="780" y="180" width="2" height="2" fill="#C9B98F"/><rect x="780" y="220" width="2" height="2" fill="#C9B98F"/><rect x="820" y="20" width="2" height="2" fill="#C9B98F"/><rect x="820" y="60" width="2" height="2" fill="#C9B98F"/><rect x="820" y="100" width="2" height="2" fill="#C9B98F"/><rect x="820" y="140" width="2" height="2" fill="#C9B98F"/><rect x="820" y="180" width="2" height="2" fill="#C9B98F"/><rect x="820" y="220" width="2" height="2" fill="#C9B98F"/><rect x="860" y="20" width="2" height="2" fill="#C9B98F"/><rect x="860" y="60" width="2" height="2" fill="#C9B98F"/><rect x="860" y="100" width="2" height="2" fill="#C9B98F"/><rect x="860" y="140" width="2" height="2" fill="#C9B98F"/><rect x="860" y="180" width="2" height="2" fill="#C9B98F"/><rect x="860" y="220" width="2" height="2" fill="#C9B98F"/><rect x="900" y="20" width="2" height="2" fill="#C9B98F"/><rect x="900" y="60" width="2" height="2" fill="#C9B98F"/><rect x="900" y="100" width="2" height="2" fill="#C9B98F"/><rect x="900" y="140" width="2" height="2" fill="#C9B98F"/><rect x="900" y="180" width="2" height="2" fill="#C9B98F"/><rect x="900" y="220" width="2" height="2" fill="#C9B98F"/><rect x="940" y="20" width="2" height="2" fill="#C9B98F"/><rect x="940" y="60" width="2" height="2" fill="#C9B98F"/><rect x="940" y="100" width="2" height="2" fill="#C9B98F"/><rect x="940" y="140" width="2" height="2" fill="#C9B98F"/><rect x="940" y="180" width="2" height="2" fill="#C9B98F"/><rect x="940" y="220" width="2" height="2" fill="#C9B98F"/><rect x="980" y="20" width="2" height="2" fill="#C9B98F"/><rect x="980" y="60" width="2" height="2" fill="#C9B98F"/><rect x="980" y="100" width="2" height="2" fill="#C9B98F"/><rect x="980" y="140" width="2" height="2" fill="#C9B98F"/><rect x="980" y="180" width="2" height="2" fill="#C9B98F"/><rect x="980" y="220" width="2" height="2" fill="#C9B98F"/><rect x="1020" y="20" width="2" height="2" fill="#C9B98F"/><rect x="1020" y="60" width="2" height="2" fill="#C9B98F"/><rect x="1020" y="100" width="2" height="2" fill="#C9B98F"/><rect x="1020" y="140" width="2" height="2" fill="#C9B98F"/><rect x="1020" y="180" width="2" height="2" fill="#C9B98F"/><rect x="1020" y="220" width="2" height="2" fill="#C9B98F"/><rect x="1060" y="20" width="2" height="2" fill="#C9B98F"/><rect x="1060" y="60" width="2" height="2" fill="#C9B98F"/><rect x="1060" y="100" width="2" height="2" fill="#C9B98F"/><rect x="1060" y="140" width="2" height="2" fill="#C9B98F"/><rect x="1060" y="180" width="2" height="2" fill="#C9B98F"/><rect x="1060" y="220" width="2" height="2" fill="#C9B98F"/><rect x="1100" y="20" width="2" height="2" fill="#C9B98F"/><rect x="1100" y="60" width="2" height="2" fill="#C9B98F"/><rect x="1100" y="100" width="2" height="2" fill="#C9B98F"/><rect x="1100" y="140" width="2" height="2" fill="#C9B98F"/><rect x="1100" y="180" width="2" height="2" fill="#C9B98F"/><rect x="1100" y="220" width="2" height="2" fill="#C9B98F"/><rect x="1140" y="20" width="2" height="2" fill="#C9B98F"/><rect x="1140" y="60" width="2" height="2" fill="#C9B98F"/><rect x="1140" y="100" width="2" height="2" fill="#C9B98F"/><rect x="1140" y="140" width="2" height="2" fill="#C9B98F"/><rect x="1140" y="180" width="2" height="2" fill="#C9B98F"/><rect x="1140" y="220" width="2" height="2" fill="#C9B98F"/>
  </g>

  <rect x="10" y="10" width="1180" height="260" fill="none" stroke="#3A332B" stroke-width="3"/>
  <rect x="18" y="18" width="1164" height="244" fill="none" stroke="#D9A93B" stroke-width="2"/>

  <rect x="638" y="218" width="540" height="10" fill="#6B5645"/>
  <rect x="638" y="228" width="540" height="4" fill="#544337"/>

  <text x="70" y="120" font-size="46" font-weight="700" fill="#3A332B" letter-spacing="2">ISHANI CHAKRABORTY</text>
  <text x="70" y="155" font-size="19" fill="#6B5645" letter-spacing="1">security tools &#183; an actuarial model for AI risk &#183; games</text>
  <text x="70" y="185" font-size="15" fill="#8A7960" letter-spacing="1">PES University &#183; IIT Kharagpur &#183; Amber Studio</text>

  
    <g transform="translate(658,146)">
      <rect x="27" y="0" width="9" height="9" fill="#E8A2B0"/>
      <rect x="36" y="0" width="9" height="9" fill="#E8A2B0"/>
      <rect x="18" y="9" width="9" height="9" fill="#D17E92"/>
      <rect x="27" y="9" width="9" height="9" fill="#E8A2B0"/>
      <rect x="36" y="9" width="9" height="9" fill="#E8A2B0"/>
      <rect x="45" y="9" width="9" height="9" fill="#D17E92"/>
      <rect x="9" y="18" width="9" height="9" fill="#7C9473"/>
      <rect x="54" y="18" width="9" height="9" fill="#7C9473"/>
      <rect x="27" y="18" width="9" height="9" fill="#5F7755"/>
      <rect x="36" y="18" width="9" height="9" fill="#5F7755"/>
      <rect x="27" y="27" width="9" height="9" fill="#5F7755"/>
      <rect x="36" y="27" width="9" height="9" fill="#5F7755"/>
      <rect x="18" y="36" width="9" height="9" fill="#C97B5F"/>
      <rect x="27" y="36" width="9" height="9" fill="#C97B5F"/>
      <rect x="36" y="36" width="9" height="9" fill="#C97B5F"/>
      <rect x="45" y="36" width="9" height="9" fill="#C97B5F"/>
      <rect x="9" y="45" width="9" height="9" fill="#A85F46"/>
      <rect x="18" y="45" width="9" height="9" fill="#C97B5F"/>
      <rect x="27" y="45" width="9" height="9" fill="#C97B5F"/>
      <rect x="36" y="45" width="9" height="9" fill="#C97B5F"/>
      <rect x="45" y="45" width="9" height="9" fill="#C97B5F"/>
      <rect x="54" y="45" width="9" height="9" fill="#A85F46"/>
      <rect x="9" y="54" width="9" height="9" fill="#A85F46"/>
      <rect x="18" y="54" width="9" height="9" fill="#A85F46"/>
      <rect x="27" y="54" width="9" height="9" fill="#A85F46"/>
      <rect x="36" y="54" width="9" height="9" fill="#A85F46"/>
      <rect x="45" y="54" width="9" height="9" fill="#A85F46"/>
      <rect x="54" y="54" width="9" height="9" fill="#A85F46"/>
      <rect x="18" y="63" width="9" height="9" fill="#A85F46"/>
      <rect x="27" y="63" width="9" height="9" fill="#A85F46"/>
      <rect x="36" y="63" width="9" height="9" fill="#A85F46"/>
      <rect x="45" y="63" width="9" height="9" fill="#A85F46"/>
    </g>
    <g transform="translate(756,146)">
      <rect x="9" y="0" width="9" height="9" fill="#8FAF8A"/>
      <rect x="18" y="0" width="9" height="9" fill="#8FAF8A"/>
      <rect x="27" y="0" width="9" height="9" fill="#8FAF8A"/>
      <rect x="36" y="0" width="9" height="9" fill="#8FAF8A"/>
      <rect x="45" y="0" width="9" height="9" fill="#8FAF8A"/>
      <rect x="54" y="0" width="9" height="9" fill="#8FAF8A"/>
      <rect x="9" y="9" width="9" height="9" fill="#6E8C6A"/>
      <rect x="18" y="9" width="9" height="9" fill="#8FAF8A"/>
      <rect x="27" y="9" width="9" height="9" fill="#8FAF8A"/>
      <rect x="36" y="9" width="9" height="9" fill="#8FAF8A"/>
      <rect x="45" y="9" width="9" height="9" fill="#8FAF8A"/>
      <rect x="54" y="9" width="9" height="9" fill="#6E8C6A"/>
      <rect x="9" y="18" width="9" height="9" fill="#8FAF8A"/>
      <rect x="18" y="18" width="9" height="9" fill="#8FAF8A"/>
      <rect x="45" y="18" width="9" height="9" fill="#8FAF8A"/>
      <rect x="54" y="18" width="9" height="9" fill="#8FAF8A"/>
      <rect x="27" y="18" width="9" height="9" fill="#E3B23C"/>
      <rect x="36" y="18" width="9" height="9" fill="#E3B23C"/>
      <rect x="9" y="27" width="9" height="9" fill="#8FAF8A"/>
      <rect x="18" y="27" width="9" height="9" fill="#8FAF8A"/>
      <rect x="45" y="27" width="9" height="9" fill="#8FAF8A"/>
      <rect x="54" y="27" width="9" height="9" fill="#8FAF8A"/>
      <rect x="27" y="27" width="9" height="9" fill="#E3B23C"/>
      <rect x="36" y="27" width="9" height="9" fill="#E3B23C"/>
      <rect x="18" y="36" width="9" height="9" fill="#8FAF8A"/>
      <rect x="27" y="36" width="9" height="9" fill="#8FAF8A"/>
      <rect x="36" y="36" width="9" height="9" fill="#8FAF8A"/>
      <rect x="45" y="36" width="9" height="9" fill="#8FAF8A"/>
      <rect x="18" y="45" width="9" height="9" fill="#6E8C6A"/>
      <rect x="27" y="45" width="9" height="9" fill="#6E8C6A"/>
      <rect x="36" y="45" width="9" height="9" fill="#6E8C6A"/>
      <rect x="45" y="45" width="9" height="9" fill="#6E8C6A"/>
      <rect x="27" y="54" width="9" height="9" fill="#6E8C6A"/>
      <rect x="36" y="54" width="9" height="9" fill="#6E8C6A"/>
      <rect x="27" y="63" width="9" height="9" fill="#6E8C6A"/>
    </g>
    <g transform="translate(854,146)">
      <rect x="27" y="0" width="9" height="9" fill="#C9C2B4"/>
      <rect x="45" y="0" width="9" height="9" fill="#C9C2B4"/>
      <rect x="36" y="9" width="9" height="9" fill="#C9C2B4"/>
      <rect x="45" y="18" width="9" height="9" fill="#C75C4A"/>
      <rect x="36" y="27" width="9" height="9" fill="#C75C4A"/>
      <rect x="45" y="27" width="9" height="9" fill="#C75C4A"/>
      <rect x="18" y="36" width="9" height="9" fill="#EFE3CE"/>
      <rect x="27" y="36" width="9" height="9" fill="#EFE3CE"/>
      <rect x="36" y="36" width="9" height="9" fill="#EFE3CE"/>
      <rect x="45" y="36" width="9" height="9" fill="#EFE3CE"/>
      <rect x="9" y="45" width="9" height="9" fill="#D9C9A8"/>
      <rect x="18" y="45" width="9" height="9" fill="#EFE3CE"/>
      <rect x="27" y="45" width="9" height="9" fill="#EFE3CE"/>
      <rect x="36" y="45" width="9" height="9" fill="#EFE3CE"/>
      <rect x="45" y="45" width="9" height="9" fill="#EFE3CE"/>
      <rect x="54" y="45" width="9" height="9" fill="#D9C9A8"/>
      <rect x="9" y="54" width="9" height="9" fill="#D9C9A8"/>
      <rect x="18" y="54" width="9" height="9" fill="#D9C9A8"/>
      <rect x="27" y="54" width="9" height="9" fill="#D9C9A8"/>
      <rect x="36" y="54" width="9" height="9" fill="#D9C9A8"/>
      <rect x="45" y="54" width="9" height="9" fill="#D9C9A8"/>
      <rect x="54" y="54" width="9" height="9" fill="#D9C9A8"/>
      <rect x="18" y="63" width="9" height="9" fill="#D9C9A8"/>
      <rect x="27" y="63" width="9" height="9" fill="#D9C9A8"/>
      <rect x="36" y="63" width="9" height="9" fill="#D9C9A8"/>
      <rect x="45" y="63" width="9" height="9" fill="#D9C9A8"/>
    </g>
    <g transform="translate(952,146)">
      <rect x="27" y="9" width="9" height="9" fill="#D9A93B"/>
      <rect x="36" y="9" width="9" height="9" fill="#D9A93B"/>
      <rect x="18" y="18" width="9" height="9" fill="#B8872A"/>
      <rect x="27" y="18" width="9" height="9" fill="#D9A93B"/>
      <rect x="36" y="18" width="9" height="9" fill="#D9A93B"/>
      <rect x="45" y="18" width="9" height="9" fill="#B8872A"/>
      <rect x="9" y="27" width="9" height="9" fill="#B8872A"/>
      <rect x="18" y="27" width="9" height="9" fill="#D9A93B"/>
      <rect x="27" y="27" width="9" height="9" fill="#B8872A"/>
      <rect x="36" y="27" width="9" height="9" fill="#D9A93B"/>
      <rect x="45" y="27" width="9" height="9" fill="#D9A93B"/>
      <rect x="54" y="27" width="9" height="9" fill="#B8872A"/>
      <rect x="9" y="36" width="9" height="9" fill="#B8872A"/>
      <rect x="18" y="36" width="9" height="9" fill="#D9A93B"/>
      <rect x="27" y="36" width="9" height="9" fill="#D9A93B"/>
      <rect x="36" y="36" width="9" height="9" fill="#B8872A"/>
      <rect x="45" y="36" width="9" height="9" fill="#D9A93B"/>
      <rect x="54" y="36" width="9" height="9" fill="#B8872A"/>
      <rect x="18" y="45" width="9" height="9" fill="#B8872A"/>
      <rect x="27" y="45" width="9" height="9" fill="#D9A93B"/>
      <rect x="36" y="45" width="9" height="9" fill="#D9A93B"/>
      <rect x="45" y="45" width="9" height="9" fill="#B8872A"/>
      <rect x="27" y="54" width="9" height="9" fill="#B8872A"/>
      <rect x="36" y="54" width="9" height="9" fill="#B8872A"/>
    </g>
    <g transform="translate(1050,146)">
      <rect x="9" y="9" width="9" height="9" fill="#587A8C"/>
      <rect x="0" y="18" width="9" height="9" fill="#587A8C"/>
      <rect x="63" y="18" width="9" height="9" fill="#587A8C"/>
      <rect x="72" y="18" width="9" height="9" fill="#6F8FA3"/>
      <rect x="9" y="27" width="9" height="9" fill="#6F8FA3"/>
      <rect x="18" y="27" width="9" height="9" fill="#6F8FA3"/>
      <rect x="27" y="27" width="9" height="9" fill="#6F8FA3"/>
      <rect x="36" y="27" width="9" height="9" fill="#6F8FA3"/>
      <rect x="45" y="27" width="9" height="9" fill="#6F8FA3"/>
      <rect x="54" y="27" width="9" height="9" fill="#6F8FA3"/>
      <rect x="72" y="27" width="9" height="9" fill="#587A8C"/>
      <rect x="81" y="27" width="9" height="9" fill="#587A8C"/>
      <rect x="18" y="36" width="9" height="9" fill="#6F8FA3"/>
      <rect x="27" y="36" width="9" height="9" fill="#6F8FA3"/>
      <rect x="36" y="36" width="9" height="9" fill="#6F8FA3"/>
      <rect x="45" y="36" width="9" height="9" fill="#6F8FA3"/>
      <rect x="54" y="36" width="9" height="9" fill="#6F8FA3"/>
      <rect x="18" y="45" width="9" height="9" fill="#587A8C"/>
      <rect x="27" y="45" width="9" height="9" fill="#6F8FA3"/>
      <rect x="36" y="45" width="9" height="9" fill="#6F8FA3"/>
      <rect x="45" y="45" width="9" height="9" fill="#6F8FA3"/>
      <rect x="54" y="45" width="9" height="9" fill="#587A8C"/>
      <rect x="18" y="54" width="9" height="9" fill="#587A8C"/>
      <rect x="27" y="54" width="9" height="9" fill="#587A8C"/>
      <rect x="36" y="54" width="9" height="9" fill="#587A8C"/>
      <rect x="45" y="54" width="9" height="9" fill="#587A8C"/>
      <rect x="54" y="54" width="9" height="9" fill="#587A8C"/>
      <rect x="27" y="63" width="9" height="9" fill="#587A8C"/>
      <rect x="36" y="63" width="9" height="9" fill="#587A8C"/>
      <rect x="45" y="63" width="9" height="9" fill="#587A8C"/>
    </g>
</svg>
